<svg width="176" height="38" viewBox="0 0 176 38" fill="none" xmlns="http://www.w3.org/2000/svg">
<g clip-path="url(#clip0_12777_6776)">
<g clip-path="url(#clip1_12777_6776)">
<g clip-path="url(#clip2_12777_6776)">
<path fill-rule="evenodd" clip-rule="evenodd" d="M15.4784 1.32529L27.7919 7.53237C28.2675 7.7729 28.5856 8.23997 28.6366 8.76913C28.6864 9.28867 29.5784 19.8045 21.0239 27.9598C20.8742 27.3182 20.7159 26.6786 20.5493 26.0413C20.1082 24.3547 19.6086 22.6834 19.0428 21.0358C18.4547 19.3234 17.7958 17.6347 17.0489 15.9877C16.3104 14.3592 15.4889 12.7672 14.5581 11.2439C13.6455 9.75076 12.6311 8.31897 11.4912 6.99691C10.589 5.95059 9.60653 4.97413 8.53835 4.10503L14.0962 1.32219C14.5318 1.10494 15.0445 1.10339 15.4784 1.32529ZM6.15023 5.30076L6.78232 4.98427C6.91336 5.10669 7.04323 5.23034 7.17109 5.35661C7.75822 5.93644 8.3114 6.55501 8.82274 7.20519C9.05787 7.50414 9.28561 7.80914 9.51336 8.11403C9.55436 8.16891 9.59528 8.22378 9.63636 8.27861L8.60219 8.27712L8.57486 8.23806C8.13046 7.60206 7.67341 6.97533 7.16461 6.39051C6.8796 6.0629 6.59045 5.73942 6.28358 5.43273C6.23931 5.38849 6.19486 5.34451 6.15023 5.30076ZM4.56216 6.09591C5.37855 7.06561 6.07908 8.13156 6.67012 9.26201C7.47467 10.8008 8.08488 12.4408 8.56024 14.1138C9.05518 15.8557 9.40011 17.6422 9.64103 19.438C9.88286 21.2408 10.0193 23.0579 10.0739 24.8761C10.1188 26.3753 10.1084 27.8761 10.0451 29.3744C-0.576641 20.9904 0.841249 8.85494 0.859319 8.71947C0.924183 8.20739 1.24078 7.76203 1.69947 7.52926L4.56216 6.09591ZM14.1774 24.7526C14.1774 24.7526 14.3013 25.3192 14.3626 25.7757C14.5357 27.1471 14.6629 28.5219 14.7622 29.9008L16.5832 29.903C16.5697 29.7958 16.5561 29.6885 16.5426 29.5813C16.3617 28.1484 16.181 26.7174 15.928 25.2948L15.8312 24.7508L14.1774 24.7526ZM12.6104 17.3011C12.6104 17.3011 12.7445 17.6591 12.7809 17.788C13.0084 18.5651 13.199 19.3568 13.3764 20.1472C13.5414 20.8831 13.6931 21.6215 13.8309 22.3633L15.3454 22.3581C15.0169 20.9229 14.6548 19.4958 14.2164 18.0909C14.1236 17.7931 14.0286 17.496 13.9308 17.1999L12.6104 17.3011ZM9.79011 10.1946C9.79011 10.1946 9.97744 10.5759 9.99453 10.6073C10.3829 11.3183 10.7259 12.0613 11.0439 12.8073C11.3552 13.5378 11.6429 14.2765 11.9103 15.0248L11.9133 15.0333L13.1849 15.0368C13.0394 14.7198 12.9033 14.3992 12.767 14.0784C12.6965 13.9123 12.6259 13.7462 12.5541 13.5804C12.2024 12.7699 11.8175 11.9741 11.4032 11.195C11.2043 10.8209 11.0001 10.4489 10.7833 10.0852L9.79011 10.1946Z" fill="url(#paint0_linear_12777_6776)"/>
<path d="M38.1943 25.3346H34.6035V8.26379H42.6829C44.5449 8.26379 46.0078 8.73527 47.0718 9.67827C48.1523 10.6049 48.6926 11.8161 48.6926 13.3119C48.6926 14.4499 48.3684 15.4417 47.7201 16.2871C47.0883 17.1162 46.2073 17.7015 45.0768 18.0429L50.4631 25.3346H46.2987L41.2117 18.4331H38.1943V25.3346ZM38.1943 11.3365V15.4823H42.4834C43.298 15.4823 43.9298 15.3034 44.3786 14.9458C44.8441 14.5881 45.0768 14.076 45.0768 13.4094C45.0768 12.7591 44.8441 12.2551 44.3786 11.8974C43.9298 11.5235 43.298 11.3365 42.4834 11.3365H38.1943Z" fill="url(#paint1_linear_12777_6776)"/>
<path d="M56.7955 20.7986C57.8261 21.8553 59.1146 22.3838 60.6606 22.3838C62.1901 22.3838 63.4701 21.8553 64.5008 20.7986C65.5316 19.7418 66.0469 18.4087 66.0469 16.7992C66.0469 15.1897 65.5316 13.8565 64.5008 12.7998C63.4701 11.743 62.1901 11.2146 60.6606 11.2146C59.1146 11.2146 57.8261 11.743 56.7955 12.7998C55.7814 13.8403 55.2743 15.1734 55.2743 16.7992C55.2743 18.425 55.7814 19.7581 56.7955 20.7986ZM51.6086 16.7992C51.6086 14.2954 52.4648 12.1982 54.1771 10.5073C55.8894 8.78403 58.0506 7.92236 60.6606 7.92236C63.254 7.92236 65.4068 8.78403 67.1191 10.5073C68.8481 12.2307 69.7126 14.328 69.7126 16.7992C69.7126 19.2541 68.8481 21.3514 67.1191 23.091C65.4068 24.8143 63.254 25.676 60.6606 25.676C58.0506 25.676 55.8894 24.8143 54.1771 23.091C52.4648 21.3677 51.6086 19.2703 51.6086 16.7992Z" fill="url(#paint2_linear_12777_6776)"/>
<path d="M73.8328 25.3346H70.0674L77.5483 8.16626H80.9895L88.4706 25.3346H84.6555L82.9345 21.384H75.5534L73.8328 25.3346ZM79.244 12.5559L76.6756 18.4819H81.7875L79.244 12.5559Z" fill="url(#paint3_linear_12777_6776)"/>
<path d="M97.1862 25.3346H90.6528V8.26379H97.1862C100.013 8.26379 102.315 9.06044 104.094 10.6537C105.873 12.2469 106.762 14.2954 106.762 16.7992C106.762 19.3192 105.873 21.3758 104.094 22.969C102.331 24.5461 100.03 25.3346 97.1862 25.3346ZM94.2437 11.4097V22.1887H96.887C98.832 22.1887 100.345 21.7172 101.425 20.7743C102.523 19.815 103.071 18.49 103.071 16.7992C103.071 15.1084 102.523 13.7914 101.425 12.8485C100.345 11.8893 98.832 11.4097 96.887 11.4097H94.2437Z" fill="url(#paint4_linear_12777_6776)"/>
<path d="M121.109 25.3346H108.965V23.3836L114.451 18.36C115.615 17.3032 116.471 16.3928 117.02 15.6286C117.519 14.897 117.768 14.1166 117.768 13.2875C117.768 12.4259 117.444 11.7349 116.795 11.2146C116.164 10.6781 115.333 10.4099 114.302 10.4099C112.573 10.4099 110.944 11.117 109.414 12.5315V9.72704C110.844 8.54019 112.565 7.94678 114.576 7.94678C116.222 7.94678 117.619 8.41013 118.765 9.33687C119.93 10.2635 120.511 11.4747 120.511 12.9705C120.511 14.1248 120.22 15.1735 119.639 16.1164C119.023 17.0756 118.042 18.1811 116.696 19.433L112.93 22.9447H121.109V25.3346Z" fill="url(#paint5_linear_12777_6776)"/>
<path d="M134.241 25.3346H131.548V20.8718H122.496V18.8233L131.548 8.26379H134.241V18.5794H136.959V20.8718H134.241V25.3346ZM131.548 11.7024L125.613 18.5794H131.548V11.7024Z" fill="url(#paint6_linear_12777_6776)"/>
<path d="M140.449 25.5296C139.949 25.5296 139.525 25.3671 139.177 25.0419C138.844 24.7005 138.678 24.2859 138.678 23.7981C138.678 23.3267 138.844 22.9284 139.177 22.6032C139.525 22.2618 139.949 22.0911 140.449 22.0911C140.914 22.0911 141.321 22.2618 141.67 22.6032C142.019 22.9284 142.194 23.3267 142.194 23.7981C142.194 24.2859 142.019 24.7005 141.67 25.0419C141.338 25.3671 140.93 25.5296 140.449 25.5296Z" fill="url(#paint7_linear_12777_6776)"/>
<path d="M144.362 18.1161V8.26379H147.106V18.2136C147.106 19.7906 147.513 21.01 148.327 21.8717C149.142 22.7171 150.256 23.1398 151.669 23.1398C153.082 23.1398 154.196 22.7171 155.011 21.8717C155.841 21.01 156.257 19.7906 156.257 18.2136V8.26379H159.001V18.1161C159.001 20.506 158.319 22.3594 156.956 23.6763C155.576 24.9932 153.814 25.6516 151.669 25.6516C149.525 25.6516 147.762 25.0013 146.382 23.7007C145.036 22.3838 144.362 20.5223 144.362 18.1161Z" fill="url(#paint8_linear_12777_6776)"/>
<path d="M175.787 25.3346H161.823V23.4324L171.648 10.7269H162.321V8.26379H175.388V10.1416L165.588 22.8715H175.787V25.3346Z" fill="url(#paint9_linear_12777_6776)"/>
</g>
</g>
</g>
<defs>
<linearGradient id="paint0_linear_12777_6776" x1="14.7364" y1="1.15906" x2="14.7364" y2="29.903" gradientUnits="userSpaceOnUse">
<stop stop-color="#033F37"/>
<stop offset="1" stop-color="#055349" stop-opacity="0.85"/>
</linearGradient>
<linearGradient id="paint1_linear_12777_6776" x1="105.195" y1="7.92238" x2="105.195" y2="25.676" gradientUnits="userSpaceOnUse">
<stop stop-color="#033F37"/>
<stop offset="1" stop-color="#055349" stop-opacity="0.85"/>
</linearGradient>
<linearGradient id="paint2_linear_12777_6776" x1="105.195" y1="7.92236" x2="105.195" y2="25.676" gradientUnits="userSpaceOnUse">
<stop stop-color="#033F37"/>
<stop offset="1" stop-color="#055349" stop-opacity="0.85"/>
</linearGradient>
<linearGradient id="paint3_linear_12777_6776" x1="105.196" y1="7.92239" x2="105.196" y2="25.676" gradientUnits="userSpaceOnUse">
<stop stop-color="#033F37"/>
<stop offset="1" stop-color="#055349" stop-opacity="0.85"/>
</linearGradient>
<linearGradient id="paint4_linear_12777_6776" x1="105.195" y1="7.92238" x2="105.195" y2="25.676" gradientUnits="userSpaceOnUse">
<stop stop-color="#033F37"/>
<stop offset="1" stop-color="#055349" stop-opacity="0.85"/>
</linearGradient>
<linearGradient id="paint5_linear_12777_6776" x1="105.195" y1="7.92239" x2="105.195" y2="25.676" gradientUnits="userSpaceOnUse">
<stop stop-color="#033F37"/>
<stop offset="1" stop-color="#055349" stop-opacity="0.85"/>
</linearGradient>
<linearGradient id="paint6_linear_12777_6776" x1="105.195" y1="7.92238" x2="105.195" y2="25.676" gradientUnits="userSpaceOnUse">
<stop stop-color="#033F37"/>
<stop offset="1" stop-color="#055349" stop-opacity="0.85"/>
</linearGradient>
<linearGradient id="paint7_linear_12777_6776" x1="105.195" y1="7.92234" x2="105.195" y2="25.676" gradientUnits="userSpaceOnUse">
<stop stop-color="#033F37"/>
<stop offset="1" stop-color="#055349" stop-opacity="0.85"/>
</linearGradient>
<linearGradient id="paint8_linear_12777_6776" x1="105.196" y1="7.92238" x2="105.196" y2="25.676" gradientUnits="userSpaceOnUse">
<stop stop-color="#033F37"/>
<stop offset="1" stop-color="#055349" stop-opacity="0.85"/>
</linearGradient>
<linearGradient id="paint9_linear_12777_6776" x1="105.195" y1="7.92238" x2="105.195" y2="25.676" gradientUnits="userSpaceOnUse">
<stop stop-color="#033F37"/>
<stop offset="1" stop-color="#055349" stop-opacity="0.85"/>
</linearGradient>
<clipPath id="clip0_12777_6776">
<rect width="175" height="30" fill="white" transform="translate(0.787109 0.531006)"/>
</clipPath>
<clipPath id="clip1_12777_6776">
<rect width="175" height="30" fill="white" transform="translate(0.787109 0.531006)"/>
</clipPath>
<clipPath id="clip2_12777_6776">
<rect width="175" height="30" fill="white" transform="translate(0.787109 0.531006)"/>
</clipPath>
</defs>
</svg>
